# xmcd
#
# Track frame offsets:
#	150
#	16533
#	28308
#	47186
#	62990
#	75973
#	89751
#	108375
#	126964
#	152231
#	171361
#	196647
#	213508
#	237257
#	249174
#	268267
#	284610
#	301660
#
# Disc length: 4124 seconds
#
# Revision: 2
# Processed by: cddbd v1.5.1PL2 Copyright (c) Steve Scherf et al.
# Submitted via: EasyCDDAExtractor 9.1.0.1
#
DISCID=f8101a12
DTITLE=Аквариум - БГ 50
DYEAR=2003
DGENRE=
TTITLE0=Серебро господа моего
TTITLE1=Город
TTITLE2=Поезд в огне
TTITLE3=Десять стрел
TTITLE4=Золото на голубом
TTITLE5=Та, которую люблю
TTITLE6=Древнерусская тоска
TTITLE7=Дубровский
TTITLE8=212-85-06
TTITLE9=Аделаида
TTITLE10=Железнодорожная вода
TTITLE11=Мочалкин блюз
TTITLE12=Рок'н'ролл мертв
TTITLE13=Рыба
TTITLE14=Брод
TTITLE15=Послезавтра
TTITLE16=Человек из Кемерова
TTITLE17=Моей звезде
EXTD=
EXTT0=
EXTT1=
EXTT2=
EXTT3=
EXTT4=
EXTT5=
EXTT6=
EXTT7=
EXTT8=
EXTT9=
EXTT10=
EXTT11=
EXTT12=
EXTT13=
EXTT14=
EXTT15=
EXTT16=
EXTT17=
PLAYORDER=
